Coordinates
version=1
nRows=27
nColumns=12
inDegrees=yes

Units are S.I. units (second, meters, Newtons, ...)
Angles are in degrees

endheader
time	SC_y	SC_z	SC_x	AC_y	AC_z	AC_x	GH_y	GH_z	GH_yy	EL_x	PS_y
       0.0              -37.47          36.92          19.78          46.57         -15.02         0.7768          142.3          79.71         -168.9          50.21           84.0
   0.04501              -37.47          36.92          19.79          46.57         -15.01         0.7781          142.3          79.71         -168.9           50.2          83.99
   0.09002              -37.47          36.92           19.8          46.58         -15.01         0.7794          142.3           79.7         -168.9           50.2          83.98
     0.135              -37.47          36.91          19.81          46.58         -15.01         0.7808          142.3          79.68         -168.9          50.19          83.97
      0.18              -37.46          36.91          19.82          46.58         -15.01         0.7823          142.3          79.67         -168.9          50.19          83.96
     0.225              -37.46          36.91          19.84          46.58          -15.0          0.784          142.3          79.66         -168.8          50.18          83.95
      0.27              -37.46          36.91          19.85          46.58          -15.0         0.7857          142.3          79.65         -168.8          50.18          83.93
    0.3151              -37.46           36.9          19.86          46.58          -15.0         0.7875          142.3          79.64         -168.8          50.17          83.92
    0.3601              -37.45           36.9          19.88          46.58         -14.99         0.7895          142.3          79.62         -168.8          50.17          83.91
    0.4051              -37.45           36.9          19.89          46.58         -14.99         0.7917          142.3           79.6         -168.8          50.16          83.89
    0.4501              -37.45          36.89          19.91          46.59         -14.98         0.7939          142.3          79.59         -168.8          50.15          83.88
    0.4951              -37.44          36.89          19.93          46.59         -14.98         0.7964          142.3          79.57         -168.8          50.15          83.86
    0.5401              -37.44          36.88          19.95          46.59         -14.97          0.799          142.3          79.55         -168.8          50.14          83.84
    0.5851              -37.43          36.88          19.97          46.59         -14.97         0.8019          142.3          79.53         -168.7          50.13          83.82
    0.6301              -37.43          36.87          19.99          46.59         -14.96          0.805          142.3          79.51         -168.7          50.12           83.8
    0.6751              -37.42          36.87          20.01           46.6         -14.96         0.8084          142.3          79.48         -168.7          50.11          83.78
    0.7201              -37.42          36.86          20.04           46.6         -14.95          0.812          142.3          79.45         -168.7           50.1          83.75
    0.7651              -37.41          36.85          20.07           46.6         -14.94          0.816          142.3          79.43         -168.6          50.09          83.73
    0.8101               -37.4          36.84           20.1          46.61         -14.93         0.8203          142.3          79.39         -168.6          50.07           83.7
    0.8551               -37.4          36.84          20.13          46.61         -14.92         0.8251          142.3          79.36         -168.6          50.06          83.66
    0.9002              -37.39          36.83          20.17          46.61         -14.91         0.8303          142.3          79.32         -168.6          50.04          83.63
    0.9452              -37.38          36.82          20.21          46.62          -14.9         0.8361          142.3          79.28         -168.5          50.03          83.59
    0.9902              -37.37           36.8          20.26          46.62         -14.89         0.8424          142.3          79.23         -168.5          50.01          83.55
     1.035              -37.36          36.79          20.31          46.63         -14.88         0.8494          142.3          79.18         -168.4          49.98           83.5
      1.08              -37.35          36.78          20.37          46.63         -14.86         0.8572          142.3          79.12         -168.4          49.96          83.44
     1.125              -37.33          36.76          20.43          46.64         -14.85          0.866          142.3          79.06         -168.3          49.93          83.38
      1.17              -37.32          36.75           20.5          46.65         -14.83         0.8757          142.3          78.98         -168.3           49.9          83.32
